<svg id="Layer_1" enable-background="new 0 0 512 512" height="512" viewBox="0 0 512 512" width="512" xmlns="http://www.w3.org/2000/svg"><g><g><path d="m253.199 2.801c-62.582 0-119.861 22.704-164.049 60.326l-32.572 352.416c46.424 57.143 117.259 93.656 196.621 93.656 139.838 0 253.199-113.361 253.199-253.199s-113.361-253.199-253.199-253.199z" fill="#265cde"/></g><g><path d="m199.428 81.969h-130.128c-42.951 45.372-69.3 106.622-69.3 174.031 0 60.476 21.214 115.989 56.59 159.533h184.481v-291.92c0-22.999-18.644-41.644-41.643-41.644z" fill="#5fd2d0"/></g><g><path d="m498.001 415.533h-203.923l-41.939-12.778-11.068-279.15c0-22.995 18.641-41.637 41.637-41.637h215.292c7.732 0 13.999 6.268 13.999 13.999v305.565c.001 7.733-6.267 14.001-13.998 14.001z" fill="#5fd2d0"/></g><g><path d="m335.715 81.969h-53.007c-22.995 0-41.637 18.641-41.637 41.637v291.927h53.007v-291.927c0-22.995 18.642-41.637 41.637-41.637z" fill="#00bec2"/></g><g><path d="m186.334 63.139h-97.173c-13.638 11.611-26.029 24.641-36.945 38.863-2.532 3.299-11.959 148.453-14.329 151.877l14.015 134.753h189.367v-270.557c0-30.34-24.595-54.936-54.935-54.936z" fill="#fff"/></g><g><path d="m0 256c0 48.635 13.724 94.059 37.493 132.633h14.41v-286.21c-32.556 42.597-51.903 95.823-51.903 153.577z" fill="#e8d6ff"/></g><g><path d="m294.078 388.633h189.169v-325.494h-139.21l-18.158 5.101-18.158-5.101c-24.651 0-31.991 20.815-33.877 44.895-.674 8.605-.558 17.254.121 25.859z" fill="#fff"/></g><g><path d="m316.377 69.288-8.656-6.149h-11.912c-30.34 0-54.936 24.595-54.936 54.936v270.558h53.205v-270.558c0-15.17 4.905-28.904 13.602-38.845 8.697-9.942 8.697-9.942 8.697-9.942z" fill="#e8d6ff"/></g><g><path d="m184.751 317.532h-152.917c-5.855 0-10.601-4.746-10.601-10.601s4.746-10.601 10.601-10.601h152.916c5.855 0 10.601 4.746 10.601 10.601.001 5.855-4.745 10.601-10.6 10.601z" fill="#e8d6ff"/></g><g><path d="m184.751 279.102h-152.917c-5.855 0-10.601-4.746-10.601-10.601s4.746-10.601 10.601-10.601h152.916c5.855 0 10.601 4.746 10.601 10.601.001 5.855-4.745 10.601-10.6 10.601z" fill="#e8d6ff"/></g><g><path d="m184.751 240.673h-152.917c-5.855 0-10.601-4.746-10.601-10.601s4.746-10.601 10.601-10.601h152.916c5.855 0 10.601 4.746 10.601 10.601.001 5.854-4.745 10.601-10.6 10.601z" fill="#e8d6ff"/></g><g><path d="m184.751 202.243h-152.917c-5.855 0-10.601-4.746-10.601-10.601s4.746-10.601 10.601-10.601h152.916c5.855 0 10.601 4.746 10.601 10.601.001 5.854-4.745 10.601-10.6 10.601z" fill="#e8d6ff"/></g><g><path d="m184.751 163.813h-152.917c-5.855 0-10.601-4.746-10.601-10.601s4.746-10.601 10.601-10.601h152.916c5.855 0 10.601 4.746 10.601 10.601.001 5.854-4.745 10.601-10.6 10.601z" fill="#e8d6ff"/></g><g><path d="m423.676 317.532h-152.917c-5.855 0-10.601-4.746-10.601-10.601s4.746-10.601 10.601-10.601h152.917c5.855 0 10.601 4.746 10.601 10.601s-4.746 10.601-10.601 10.601z" fill="#e8d6ff"/></g><g><path d="m423.676 279.102h-152.917c-5.855 0-10.601-4.746-10.601-10.601s4.746-10.601 10.601-10.601h152.917c5.855 0 10.601 4.746 10.601 10.601s-4.746 10.601-10.601 10.601z" fill="#e8d6ff"/></g><g><path d="m423.676 240.673h-152.917c-5.855 0-10.601-4.746-10.601-10.601s4.746-10.601 10.601-10.601h152.917c5.855 0 10.601 4.746 10.601 10.601 0 5.854-4.746 10.601-10.601 10.601z" fill="#e8d6ff"/></g><g><path d="m423.676 202.243h-152.917c-5.855 0-10.601-4.746-10.601-10.601s4.746-10.601 10.601-10.601h152.917c5.855 0 10.601 4.746 10.601 10.601 0 5.854-4.746 10.601-10.601 10.601z" fill="#e8d6ff"/></g><g><path d="m423.676 163.813h-152.917c-5.855 0-10.601-4.746-10.601-10.601s4.746-10.601 10.601-10.601h152.917c5.855 0 10.601 4.746 10.601 10.601 0 5.854-4.746 10.601-10.601 10.601z" fill="#e8d6ff"/></g><g><path d="m344.037 447.851-18.158-7.421-18.158 7.421v-384.712h36.316z" fill="#f5415f"/></g></g></svg>