<svg id="Layer_1" height="512" viewBox="0 0 512 512" width="512" xmlns="http://www.w3.org/2000/svg" data-name="Layer 1"><path d="m231.34 388.35-.02.05v31.39h-190.85a12 12 0 0 1 -12-12v-256.56a12 12 0 0 1 12-12h28.45v209.09a31.172 31.172 0 0 0 31.17 31.18h101.42a30.954 30.954 0 0 1 10.65 1.88z" fill="#867af4"/><path d="m280.68 388.4v31.39h-.68a68.382 68.382 0 0 0 -48 0h-.68v-31.39l.02-.05 14.01 5.09a31.106 31.106 0 0 0 21.3 0l14.01-5.09z" fill="#604af3"/><path d="m483.53 151.23v256.56a12 12 0 0 1 -12 12h-190.85v-31.39l-.02-.05 19.18-6.97a30.954 30.954 0 0 1 10.65-1.88h101.42a31.172 31.172 0 0 0 31.17-31.18v-209.09h28.45a12 12 0 0 1 12 12z" fill="#867af4"/><path d="m256 394.98v-286.95a31.206 31.206 0 0 0 10.65-1.88l33.19-12.06a30.954 30.954 0 0 1 10.65-1.88h101.42a31.172 31.172 0 0 1 31.17 31.18v224.93a31.172 31.172 0 0 1 -31.17 31.18h-101.42a30.954 30.954 0 0 0 -10.65 1.88l-19.18 6.97-14.01 5.09a31.22 31.22 0 0 1 -10.66 1.88z" fill="#d1d3d4"/><path d="m245.35 106.15-33.19-12.165a31.062 31.062 0 0 0 -10.65-1.985h-101.42a31.284 31.284 0 0 0 -31.09 31.39v224.93c0 17.22 13.87 31.68 31.09 31.68h101.42a30.731 30.731 0 0 1 10.65 1.63l19.18 6.845 14.01 5.028a31.115 31.115 0 0 0 10.64 1.848l.01-.371v-286.95a31.206 31.206 0 0 1 -10.65-1.88z" fill="#f4f8fc"/><path d="m115.65 162.58h94.43v53h-94.43z" fill="#55d8d8"/><g fill="#b0b5ca"><path d="m341.8 168.579h-39.878a6 6 0 0 1 0-12h39.878a6 6 0 0 1 0 12z"/><path d="m396.355 217.578h-94.433a6 6 0 0 1 0-12h94.433a6 6 0 0 1 0 12z"/><path d="m396.355 266.576h-94.433a6 6 0 0 1 0-12h94.433a6 6 0 0 1 0 12z"/><path d="m396.355 315.574h-94.433a6 6 0 0 1 0-12h94.433a6 6 0 0 1 0 12z"/></g><path d="m210.078 266.576h-94.433a6 6 0 1 1 0-12h94.433a6 6 0 0 1 0 12z" fill="#ccd3df"/><path d="m210.078 315.574h-94.433a6 6 0 1 1 0-12h94.433a6 6 0 1 1 0 12z" fill="#ccd3df"/><path d="m99 348.32v-224.93a31.284 31.284 0 0 1 31.09-31.39h-30a31.284 31.284 0 0 0 -31.09 31.39v224.93c0 17.22 13.87 31.68 31.09 31.68h30c-17.22 0-31.09-14.46-31.09-31.68z" fill="#ccd3df"/><path d="m58.47 407.79v-256.56a11.991 11.991 0 0 1 10.45-11.889v-.111h-28.45a12 12 0 0 0 -12 12v256.56a12 12 0 0 0 12 12h30a12 12 0 0 1 -12-12z" fill="#b5b2f9"/></svg>