<svg id="Layer_1" enable-background="new 0 0 512 512" height="512" viewBox="0 0 512 512" width="512" xmlns="http://www.w3.org/2000/svg"><g><path d="m444.5 37.5-30 42.833 30 42.834h30v-85.667z" fill="#f0224e"/><path d="m444.5 153.167-30 42.833 30 42.833h30v-85.666z" fill="#ff9441"/><path d="m444.5 268.833-30 42.834 30 42.833h30v-85.667z" fill="#53a143"/><path d="m384.5 37.5h60v85.667h-60z" fill="#ff4c50"/><path d="m384.5 153.167h60v85.667h-60z" fill="#ffb739"/><path d="m384.5 268.833h60v85.667h-60z" fill="#60ba4d"/><path d="m414.5 7.5v377l-105 45v-392l75-30z" fill="#1b74d6"/><path d="m37.5 52.5v377h165l-120-422c-24.85 0-45 20.15-45 45z" fill="#3d5168"/><path d="m82.5 7.5h302v422h-302z" fill="#1e8aff"/><path d="m414.5 384.5h-30l-70 60 70 60h30v-30l-60-30 60-30z" fill="#54a5ff"/><path d="m82.5 384.5c-24.85 0-45 20.15-45 45v30c0 24.85 20.15 45 45 45h302v-120z" fill="#89c1ff"/><path d="m414.5 414.5h-30l-63.952 30 63.952 30h30c-8.29-8.29-12.44-19.14-12.44-30s4.15-21.71 12.44-30z" fill="#ffeac3"/><path d="m82.5 414.5c-8.28 0-15 6.72-15 15v30c0 8.28 6.72 15 15 15h30v-60z" fill="#1b74d6"/><path d="m384.5 414.5h-272c-8.28 0-15 6.72-15 15v30c0 8.28 6.72 15 15 15h272c-8.29-8.29-12.44-19.14-12.44-30s4.15-21.71 12.44-30z" fill="#fff"/><path d="m474.5 130.667c4.143 0 7.5-3.357 7.5-7.5v-85.667c0-4.143-3.357-7.5-7.5-7.5h-52.5v-22.5c0-4.143-3.357-7.5-7.5-7.5h-332c-28.948 0-52.5 23.552-52.5 52.5v407c0 28.948 23.552 52.5 52.5 52.5h332c4.143 0 7.5-3.357 7.5-7.5v-30c0-1.989-.79-3.896-2.196-5.304-6.604-6.603-10.24-15.374-10.24-24.696s3.637-18.094 10.24-24.696c1.406-1.407 2.196-3.314 2.196-5.304v-52.5h52.5c4.143 0 7.5-3.357 7.5-7.5v-85.667c0-4.143-3.357-7.5-7.5-7.5h-52.5v-15h52.5c4.143 0 7.5-3.357 7.5-7.5v-85.666c0-4.143-3.357-7.5-7.5-7.5h-52.5v-15zm-7.5-85.667v70.667h-45v-70.667zm-422 7.5c0-18.109 12.904-33.262 30-36.747v361.781c-11.673 1.677-22.118 7.208-30 15.259zm37.5 444.5c-20.678 0-37.5-16.822-37.5-37.5v-30c0-20.678 16.822-37.5 37.5-37.5 4.143 0 7.5-3.357 7.5-7.5v-369.5h317v362h-294.5c-4.143 0-7.5 3.357-7.5 7.5s3.357 7.5 7.5 7.5h294.5v15h-324.5c-12.406 0-22.5 10.094-22.5 22.5v30c0 12.406 10.094 22.5 22.5 22.5h324.5v15zm8.79-30h-8.79c-4.136 0-7.5-3.364-7.5-7.5v-30c0-4.136 3.364-7.5 7.5-7.5h8.79c-.833 2.347-1.29 4.871-1.29 7.5v30c0 2.629.458 5.153 1.29 7.5zm13.71-7.5v-30c0-4.136 3.364-7.5 7.5-7.5h287.412c-3.491 6.894-5.348 14.554-5.348 22.5s1.857 15.606 5.348 22.5h-287.412c-4.136 0-7.5-3.364-7.5-7.5zm362-183.167v70.667h-45v-70.667zm0-115.666v70.666h-45v-70.666z"/></g></svg>