<svg height="512" viewBox="0 0 64 64" width="512" xmlns="http://www.w3.org/2000/svg"><g id="lab-microscope-cell-covid19-coronavirus"><path d="m51 54v-23a4 4 0 0 0 -4-4h-2v-8h2a12 12 0 0 1 12 12v23z" fill="#9bc9ff"/><path d="m47 19h-2a12 12 0 0 1 12 12v23h2v-23a12 12 0 0 0 -12-12z" fill="#57a4ff"/><path d="m35.144 6.336h4.54v6h-4.54z" fill="#004fac" transform="matrix(.259 -.966 .966 .259 18.712 43.059)"/><path d="m43.59 13.34-5.18 19.32-.96-.26-1.94-.52-3.86-1.03-5.8-1.56-.96-.25 5.18-19.32 3.86 1.03 2.9.78z" fill="#2488ff"/><path d="m36.827 11.529-2.898-.776z" fill="#9bc9ff"/><path d="m59 53.809a5.97 5.97 0 0 0 -3-.809h-41a6 6 0 0 0 -6 6v2h53v-2a5.992 5.992 0 0 0 -3-5.191z" fill="#004fac"/><path d="m59 53.809a5.97 5.97 0 0 0 -3-.809h-2a6.012 6.012 0 0 1 6 6v2h2v-2a5.992 5.992 0 0 0 -3-5.191z" fill="#00479b"/><path d="m46.8 24.55a6 6 0 1 1 -4.25-7.35 6.014 6.014 0 0 1 4.25 7.35z" fill="#ff6243"/><path d="m36.9 7.406 1.932.518a4 4 0 0 0 4.9-2.828l-9.664-2.588a4 4 0 0 0 2.832 4.898z" fill="#808285"/><path d="m31.65 30.848 3.864 1.035z" fill="#9bc9ff"/><path d="m27.787 29.812-1.036 3.864 3.864 1.035 1.932.518 1.932.517 1.035-3.863-3.864-1.035z" fill="#004fac"/><path d="m28.683 34.194-1.035 3.863 3.864 1.036 1.035-3.864-1.932-.518z" fill="#a7a9ac"/><path d="m30.615 34.711 1.932.518z" fill="#9bc9ff"/><path d="m39.068 22.482a2 2 0 1 0 2.45-1.414 2 2 0 0 0 -2.45 1.414z" fill="#ff9811"/><path d="m21 45v4h18v-2-2z" fill="#ff5023"/><circle cx="14" cy="14" fill="#ffcd00" r="11"/><path d="m14 3a11.078 11.078 0 0 0 -1.5.114 10.987 10.987 0 0 1 0 21.772 10.995 10.995 0 1 0 1.5-21.886z" fill="#ebbf00"/><circle cx="14" cy="14" fill="#d80027" r="3"/><g fill="#231f20"><path d="m60 53.26v-22.26a13.012 13.012 0 0 0 -13-13h-1.11a7.058 7.058 0 0 0 -2.13-1.43l.79-2.97a.988.988 0 0 0 -.7-1.22l-2.9-.78.78-2.9a5.251 5.251 0 0 0 .63-.31 4.95 4.95 0 0 0 2.33-3.04 1 1 0 0 0 -.7-1.22l-9.66-2.59a1.006 1.006 0 0 0 -1.23.71 4.969 4.969 0 0 0 .5 3.79 5.807 5.807 0 0 0 .4.57l-.78 2.92-2.9-.78a1 1 0 0 0 -1.22.71l-5.18 19.32a.99.99 0 0 0 .71 1.22l1.93.52-.77 2.9a1.009 1.009 0 0 0 .09.76 1.039 1.039 0 0 0 .61.46l.97.26-.78 2.9a1.013 1.013 0 0 0 .1.76.983.983 0 0 0 .61.46l3.86 1.04a1.153 1.153 0 0 0 .26.03.958.958 0 0 0 .5-.13 1 1 0 0 0 .47-.61l.77-2.9.97.26a.746.746 0 0 0 .26.04.993.993 0 0 0 .5-.14.955.955 0 0 0 .46-.6l.78-2.9 1.93.51a.824.824 0 0 0 .26.04 1 1 0 0 0 .97-.74l.79-2.97a7.858 7.858 0 0 0 .83.05 7.023 7.023 0 0 0 4.87-2h1.13a3.009 3.009 0 0 1 3 3v14.97l-10 .03v-1a1 1 0 0 0 -1-1h-18a1 1 0 0 0 -1 1v4a1 1 0 0 0 1 1h18a1 1 0 0 0 1-1v-1l10-.03v4.03h-35a7.008 7.008 0 0 0 -7 7v2a1 1 0 0 0 1 1h53a1 1 0 0 0 1-1v-2a7.01 7.01 0 0 0 -3-5.74zm-17.66-47.5a3.029 3.029 0 0 1 -.98.9 2.956 2.956 0 0 1 -2.27.3l-1.93-.52a2.992 2.992 0 0 1 -2.22-2.66zm-2.78 3.28-.54 2.04-3.87-1.03.55-2.03a5.861 5.861 0 0 0 .94.35l1.93.52a4.841 4.841 0 0 0 .99.15zm-8.76 28.83-1.93-.52.52-1.93 1.55.41.38.11zm2.97-3.35-5.79-1.55.51-1.93 5.8 1.55zm3.94-3.09-11.6-3.1 4.66-17.39 11.59 3.11-.53 2.01a7 7 0 0 0 -7.59 5.13 7 7 0 0 0 4 8.24zm8.12-7.14a5 5 0 0 1 -9.16 1.21 4.93 4.93 0 0 1 -.5-3.79 5 5 0 0 1 4.83-3.71 4.765 4.765 0 0 1 1.29.17 4.988 4.988 0 0 1 2.47 1.53v.01a4.545 4.545 0 0 1 .57.79 4.93 4.93 0 0 1 .5 3.79zm-7.83 23.71h-16v-2h16zm9.3-21.97a6.386 6.386 0 0 0 .46-1.22 6.88 6.88 0 0 0 -.43-4.79 11 11 0 0 1 10.67 10.98v21.29a7.268 7.268 0 0 0 -2-.29h-4v-21a4.993 4.993 0 0 0 -4.7-4.97zm13.7 33.97h-51v-1a5 5 0 0 1 5-5h41a5 5 0 0 1 5 5z"/><path d="m13 39a3 3 0 0 0 3 3h8a1 1 0 0 0 0-2h-8a1 1 0 0 1 -1-1v-13.051a12 12 0 1 0 -2 0zm-9-25a10 10 0 1 1 10 10 10.011 10.011 0 0 1 -10-10z"/><path d="m16 20a1 1 0 0 0 -1-1v-1.142a3.915 3.915 0 0 0 1.019-.425l.809.809a1 1 0 1 0 1.414 1.415l1.415-1.414a1 1 0 0 0 -1.414-1.415l-.809-.81a3.915 3.915 0 0 0 .424-1.018h1.142a1 1 0 0 0 2 0v-2a1 1 0 0 0 -2 0h-1.142a3.915 3.915 0 0 0 -.425-1.019l.809-.81a1 1 0 0 0 1.414-1.415l-1.414-1.413a1 1 0 0 0 -1.414 1.415l-.809.809a3.915 3.915 0 0 0 -1.019-.425v-1.142a1 1 0 0 0 0-2h-2a1 1 0 0 0 0 2v1.142a3.915 3.915 0 0 0 -1.019.425l-.809-.809a1 1 0 1 0 -1.414-1.415l-1.415 1.414a1 1 0 0 0 1.414 1.415l.809.81a3.915 3.915 0 0 0 -.424 1.018h-1.142a1 1 0 0 0 -2 0v2a1 1 0 0 0 2 0h1.142a3.915 3.915 0 0 0 .425 1.019l-.809.81a1 1 0 0 0 -1.414 1.415l1.415 1.414a1 1 0 1 0 1.414-1.415l.809-.809a3.915 3.915 0 0 0 1.018.424v1.142a1 1 0 0 0 0 2h2a1 1 0 0 0 1-1zm-4-6a2 2 0 1 1 2 2 2 2 0 0 1 -2-2z"/><path d="m41 26a3 3 0 1 1 3-3 3 3 0 0 1 -3 3zm0-4a1 1 0 1 0 1 1 1 1 0 0 0 -1-1z"/></g></g></svg>