<svg id="Layer_1" enable-background="new 0 0 512 512" height="512" viewBox="0 0 512 512" width="512" xmlns="http://www.w3.org/2000/svg"><g><g id="XMLID_419_"><g><g id="XMLID_790_"><g id="XMLID_791_"><g id="XMLID_792_"><g id="XMLID_793_"><g id="XMLID_794_"><g id="XMLID_795_"><g id="XMLID_796_"><g id="XMLID_797_"><g id="XMLID_798_"><g id="XMLID_799_"><g id="XMLID_800_"><g id="XMLID_801_"><g id="XMLID_802_"><g id="XMLID_803_"><circle cx="256" cy="256" fill="#5eefee" r="256"/></g></g></g></g></g></g></g></g></g></g></g></g></g></g></g></g><path d="m512 256c0-34.234-6.737-66.89-18.929-96.738l-64.318-64.318-341.155 330.047 65.441 65.441c31.508 13.859 66.332 21.568 102.961 21.568 141.385 0 256-114.615 256-256z" fill="#54c9fc"/><g><g><path d="m402.116 432.736h-292.232c-19.896 0-36.174-16.278-36.174-36.174v-238.624c0-19.896 16.278-36.174 36.174-36.174h292.231c19.896 0 36.174 16.278 36.174 36.174v238.625c0 19.895-16.278 36.173-36.173 36.173z" fill="#fff"/><path d="m438.29 157.94v238.62c0 19.9-16.28 36.18-36.17 36.18h-146.12v-310.98h146.12c19.89 0 36.17 16.28 36.17 36.18z" fill="#eae1dc"/><path d="m438.289 173.93h-364.578v-52.166c0-23.472 19.028-42.5 42.5-42.5h279.579c23.472 0 42.5 19.028 42.5 42.5v52.166z" fill="#238cf8"/><g><path d="m438.29 121.76v52.17h-182.29v-94.67h139.79c23.47 0 42.5 19.03 42.5 42.5z" fill="#0768dd"/></g></g><g><circle cx="190.5" cy="126.597" fill="#ff807d" r="16"/><circle cx="129.25" cy="126.597" fill="#fedd55" r="16"/></g><g><path d="m380.147 303.27-14.889 36.69-18.111 25.976-18.109-25.976-14.891-36.69 33-12z" fill="#fdc37e"/><path d="m365.258 339.96-18.111 44.64-18.109-44.64z" fill="#57555c"/><path d="m314.142 127.4h66v93.619h-66z" fill="#fcc63d"/><path d="m314.142 216h66v87.27h-66z" fill="#fd9126"/></g><g><g><g><path d="m123.625 221.02h132.375v30h-132.375z" fill="#776d6b"/></g><g><path d="m123.625 281.27h132.375v30h-132.375z" fill="#776d6b"/></g><g><path d="m123.625 341.52h132.375v30h-132.375z" fill="#776d6b"/></g></g></g></g></g></svg>