<?xml version="1.0" encoding="iso-8859-1"?>
<!-- Generator: Adobe Illustrator 19.0.0, SVG Export Plug-In . SVG Version: 6.00 Build 0)  -->
<svg version="1.1" id="Capa_1" xmlns="http://www.w3.org/2000/svg" xmlns:xlink="http://www.w3.org/1999/xlink" x="0px" y="0px"
	 viewBox="0 0 226.347 226.347" style="enable-background:new 0 0 226.347 226.347;" xml:space="preserve">
<g>
	<circle cx="147.543" cy="86.914" r="14.869"/>
	<path d="M67.45,100.914c0,32.452,26.401,58.854,58.854,58.854s58.854-26.401,58.854-58.854c0-32.456-26.402-58.861-58.854-58.861
		S67.45,68.458,67.45,100.914z M147.451,61.833c13.959,0,25.276,11.317,25.276,25.277s-22.572,36.493-25.276,36.493
		c-2.607,0-25.277-22.533-25.277-36.493S133.49,61.833,147.451,61.833z"/>
	<path d="M184.61,149.407c-2.711,0-5.336,1.126-7.22,3.093c-0.209,0.166-0.413,0.343-0.618,0.537
		c-13.547,13.064-31.323,20.259-50.054,20.259c-40.607,0-72.416-31.205-72.416-71.042c0-37.789,29.972-68.937,68.157-70.907h0.794
		c5.179,0,6.684-6.395,6.684-11.87V9.42c0-5.194-4.493-9.42-10.017-9.42c-5.505,0-9.983,4.226-9.983,9.42v0.093
		c-45,7.009-78.179,46.071-78.179,91.402c0,45.33,33.179,84.393,78.179,91.401v8.03H98.87c-2.825,0-6.645,1.323-8.783,4.248
		l-8.41,11.304c-1.598,2.187-1.891,4.796-0.782,6.979c1.103,2.173,3.364,3.47,6.048,3.47h70.334c2.684,0,4.945-1.297,6.048-3.47
		c1.108-2.183,0.815-4.792-0.808-7.013l-8.361-11.237c-2.162-2.957-5.981-4.28-8.807-4.28h-15.412v-7.115
		c22-1.369,44.097-10.751,59.671-25.854c0.068-0.062,0.382-0.209,0.534-0.306c0.458-0.292,1.014-0.62,1.367-1.093
		c1.329-1.507,3.079-3.807,3.079-6.571C194.589,153.894,190.123,149.407,184.61,149.407z"/>
</g>
<g>
</g>
<g>
</g>
<g>
</g>
<g>
</g>
<g>
</g>
<g>
</g>
<g>
</g>
<g>
</g>
<g>
</g>
<g>
</g>
<g>
</g>
<g>
</g>
<g>
</g>
<g>
</g>
<g>
</g>
</svg>
